<?xml version="1.0" ?>
<!-- Uploaded to: SVG Repo, www.svgrepo.com, Generator: SVG Repo Mixer Tools -->
<svg width="800px" height="800px" viewBox="0 0 64 64" xmlns="http://www.w3.org/2000/svg">
<g data-name="07_Streaming" id="_07_Streaming">
<path d="M59,50H5V14a2,2,0,0,1,2-2H57a2,2,0,0,1,2,2Z" style="fill:#0455bf"/>
<path d="M8,12H7a2,2,0,0,0-2,2V50H59V47H43A35,35,0,0,1,8,12Z" style="fill:#004787"/>
<path d="M54,46H10a1,1,0,0,1-1-1V17a1,1,0,0,1,1-1H54a1,1,0,0,1,1,1V45A1,1,0,0,1,54,46Z" style="fill:#fdfeff"/>
<path d="M39,43A27,27,0,0,1,12,16H10a1,1,0,0,0-1,1V45a1,1,0,0,0,1,1H54a1,1,0,0,0,1-1V43Z" style="fill:#dfeaef"/>
<path d="M32,41A10,10,0,1,1,42,31,10.011,10.011,0,0,1,32,41Z" style="fill:#0455bf"/>
<path d="M30,35a1,1,0,0,1-1-1V27a1,1,0,0,1,1.553-.833l6.021,4a1,1,0,0,1-.108,1.728l-6.02,3A1,1,0,0,1,30,35Z" style="fill:#febc00"/>
<path d="M36.574,30.167l-.283-.188L32.446,31.9A1,1,0,0,1,32,32a1,1,0,0,1-1-1V26.464l-.447-.3A1,1,0,0,0,29,27v7a1,1,0,0,0,1.446.9l6.02-3a1,1,0,0,0,.108-1.728Z" style="fill:#edaa03"/>
<path d="M24.933,12.933l-1.414-1.414a11.979,11.979,0,0,1,16.962,0l-1.414,1.414a9.98,9.98,0,0,0-14.134,0Z" style="fill:#febc00"/>
<path d="M36.24,15.76a5.987,5.987,0,0,0-8.48,0l-1.414-1.414a7.986,7.986,0,0,1,11.308,0Z" style="fill:#febc00"/>
<path d="M30.586,18.585l-1.415-1.413a4,4,0,0,1,5.657,0l-1.414,1.414A2.051,2.051,0,0,0,30.586,18.585Z" style="fill:#febc00"/>
<path d="M24.933,12.933l-.89-.89c-.176.157-.356.307-.524.476l1.414,1.414A10.015,10.015,0,0,1,27.663,12H26.025A10.027,10.027,0,0,0,24.933,12.933Z" style="fill:#004787"/>
<path d="M37.976,12H36.337a10,10,0,0,1,2.73,1.933l1.414-1.414c-.168-.169-.348-.319-.524-.476l-.89.89A10.112,10.112,0,0,0,37.976,12Z" style="fill:#004787"/>
<path d="M32,14a5.957,5.957,0,0,0-4.24,1.76l-.89-.89c-.18.151-.356.308-.524.476L27,16h1.686a5.991,5.991,0,0,1,6.628,0H37l.654-.654c-.168-.168-.344-.325-.524-.476l-.89.89A5.957,5.957,0,0,0,32,14Z" style="fill:#004787"/>
<path d="M2,50H62a0,0,0,0,1,0,0v0a7,7,0,0,1-7,7H9a7,7,0,0,1-7-7v0a0,0,0,0,1,0,0Z" style="fill:#0455bf"/>
<path d="M57,55H11a7,7,0,0,1-6.706-5H2a7,7,0,0,0,7,7H55a6.991,6.991,0,0,0,5.846-3.154A6.963,6.963,0,0,1,57,55Z" style="fill:#004787"/>
<path d="M25,50H39a0,0,0,0,1,0,0v0a3,3,0,0,1-3,3H28a3,3,0,0,1-3-3v0A0,0,0,0,1,25,50Z" style="fill:#febc00"/>
<path d="M37,52H29a2.99,2.99,0,0,1-2.816-2H25a3,3,0,0,0,3,3h8a2.986,2.986,0,0,0,2.554-1.446A2.965,2.965,0,0,1,37,52Z" style="fill:#edaa03"/>
</g>
</svg>