<?xml version="1.0" encoding="UTF-8"?>
<svg version="1.1" xmlns="http://www.w3.org/2000/svg" width="1024" height="1024">
<path d="M0 0 C337.92 0 675.84 0 1024 0 C1024 337.92 1024 675.84 1024 1024 C686.08 1024 348.16 1024 0 1024 C0 686.08 0 348.16 0 0 Z " fill="#2A2B39" transform="translate(0,0)"/>
<path d="M0 0 C2.0234375 1.12109375 2.0234375 1.12109375 3.9375 2.375 C4.63101563 2.79910156 5.32453125 3.22320312 6.0390625 3.66015625 C13.42983954 8.62886216 19.07026168 16.5943504 20.9375 25.375 C21.96281368 34.50155753 20.75086907 42.17171136 15.265625 49.65625 C6.15866645 60.24573668 -4.6964294 69.61721136 -15.22045898 78.76489258 C-17.79014062 81.01102252 -20.3018616 83.31294317 -22.8125 85.625 C-23.56611816 86.31770996 -23.56611816 86.31770996 -24.33496094 87.02441406 C-25.91164141 88.47370581 -27.48721985 89.92418643 -29.0625 91.375 C-34.97267644 96.81819954 -40.88401797 102.24904452 -46.953125 107.515625 C-51.19524948 111.25497917 -55.33799547 115.10541281 -59.49804688 118.93554688 C-62.01611727 121.25242313 -64.53946833 123.56352945 -67.0625 125.875 C-70.08736473 128.64688682 -73.11150604 131.41954714 -76.1328125 134.1953125 C-80.73599765 138.42266751 -85.34663776 142.64026083 -90 146.8125 C-101.91504007 157.50921499 -101.91504007 157.50921499 -113.3581543 168.70288086 C-115.02899221 170.34212579 -116.75859308 171.85301251 -118.54296875 173.3671875 C-123.58886562 177.76002476 -128.3255428 182.45197183 -133.05322266 187.18041992 C-134.55483556 188.67984672 -136.0642849 190.1710681 -137.57421875 191.66210938 C-145.17252429 199.21429328 -152.83287018 206.91693645 -157.5 216.6875 C-158.20962891 218.13576172 -158.20962891 218.13576172 -158.93359375 219.61328125 C-162.47826912 228.28485732 -161.86285054 237.36925389 -158.59057617 246.02734375 C-152.86184122 258.57765747 -142.66266658 268.31998676 -132.9375 277.8125 C-131.70094112 279.037522 -130.46526047 280.26343114 -129.23046875 281.49023438 C-123.91588335 286.75095994 -118.57656097 291.93528697 -112.88720703 296.79321289 C-108.59443442 300.5144965 -104.53429772 304.50017594 -100.41796875 308.4140625 C-96.35910082 312.25774364 -92.23658945 315.99780296 -88.01367188 319.66015625 C-84.79335408 322.49042555 -81.68200487 325.43463663 -78.5625 328.375 C-74.15274435 332.51232161 -69.72375621 336.60139682 -65.140625 340.546875 C-61.6958138 343.57727282 -58.34721699 346.71194015 -54.98217773 349.83032227 C-50.8877121 353.62180099 -46.7539128 357.36610821 -42.59765625 361.08984375 C-39.69336706 363.70773154 -36.81481028 366.3525513 -33.9375 369 C-30.6786575 371.99686615 -27.40750263 374.9741471 -24.0625 377.875 C-20.71749111 380.77585833 -17.44655087 383.75335423 -14.1875 386.75 C-10.30037812 390.32216597 -6.4112348 393.89169443 -2.5 397.4375 C-1.71496094 398.15035156 -0.92992187 398.86320312 -0.12109375 399.59765625 C2.01519794 401.51627304 2.01519794 401.51627304 4.9375 403.375 C4.9375 404.035 4.9375 404.695 4.9375 405.375 C5.5975 405.375 6.2575 405.375 6.9375 405.375 C6.9375 406.035 6.9375 406.695 6.9375 407.375 C7.9275 407.705 8.9175 408.035 9.9375 408.375 C16.1437387 415.47015309 19.68158053 424.56953507 19.28125 434.02734375 C17.8734531 443.64195665 13.31770858 452.28498826 5.54296875 458.1953125 C-3.30539909 463.82238513 -12.01527576 465.48996425 -22.375 463.8125 C-31.2903878 461.61439577 -38.38512261 455.56602181 -44.50390625 448.9765625 C-45.98927547 447.27448867 -45.98927547 447.27448867 -48.0625 446.375 C-48.0625 445.715 -48.0625 445.055 -48.0625 444.375 C-48.64515625 444.12105469 -49.2278125 443.86710937 -49.828125 443.60546875 C-52.30438033 442.24179667 -53.86770626 440.73274797 -55.8125 438.6875 C-59.01923438 435.32581837 -62.42475821 432.2913282 -65.93066406 429.25073242 C-70.07584788 425.60352133 -74.05462497 421.776991 -78.0625 417.98046875 C-82.02128632 414.24591056 -86.04667398 410.61270809 -90.15625 407.04492188 C-93.01080682 404.54425991 -95.78671216 401.96236657 -98.5625 399.375 C-101.98136906 396.20193836 -105.40095238 393.04235756 -108.9375 390 C-112.91322329 386.56565179 -116.73075773 382.9678998 -120.5625 379.375 C-126.2885452 374.00797208 -132.03775845 368.69541178 -138.09375 363.69921875 C-138.7434375 363.15910156 -139.393125 362.61898438 -140.0625 362.0625 C-140.64 361.59199219 -141.2175 361.12148438 -141.8125 360.63671875 C-143.0625 359.375 -143.0625 359.375 -143.0625 357.375 C-143.61421875 357.15199219 -144.1659375 356.92898438 -144.734375 356.69921875 C-147.7930676 354.95945903 -149.8698812 352.71735518 -152.3125 350.1875 C-155.40930934 346.98776202 -158.51869006 343.9397928 -161.890625 341.03125 C-166.29705469 337.21928051 -170.44185088 333.1793337 -174.5625 329.0625 C-175.28953125 328.34771484 -176.0165625 327.63292969 -176.765625 326.89648438 C-177.45140625 326.21263672 -178.1371875 325.52878906 -178.84375 324.82421875 C-179.46314453 324.20893311 -180.08253906 323.59364746 -180.72070312 322.9597168 C-182.0625 321.375 -182.0625 321.375 -182.0625 319.375 C-182.7225 319.375 -183.3825 319.375 -184.0625 319.375 C-185.40234375 318.08203125 -185.40234375 318.08203125 -187 316.1875 C-187.62261719 315.45144531 -188.24523437 314.71539062 -188.88671875 313.95703125 C-189.60472656 313.10496094 -190.32273438 312.25289063 -191.0625 311.375 C-191.89394531 310.43011719 -192.72539062 309.48523438 -193.58203125 308.51171875 C-200.79743957 300.26815731 -207.09709966 291.55829118 -213.0625 282.375 C-214.06990234 280.83005859 -214.06990234 280.83005859 -215.09765625 279.25390625 C-227.64058162 258.93712384 -232.86817482 233.94344203 -227.4375 210.5 C-222.20202006 190.13980023 -211.01849089 173.70513328 -197.0625 158.375 C-196.16479573 157.36769417 -195.26764528 156.35989446 -194.37109375 155.3515625 C-187.92169638 148.1722855 -181.12283813 141.33516964 -174.3125 134.5 C-173.42506104 133.60788818 -172.53762207 132.71577637 -171.62329102 131.79663086 C-167.16274918 127.346947 -162.63805419 123.05688016 -157.85839844 118.95263672 C-155.12790977 116.55399373 -152.59816461 113.97617898 -150.0625 111.375 C-146.12859416 107.38661994 -142.12317595 103.58336942 -137.85546875 99.94921875 C-135.42898782 97.81877907 -133.19551865 95.52027063 -130.93530273 93.21630859 C-129.1331831 91.44449446 -127.27663613 89.79025424 -125.359375 88.14453125 C-120.3245057 83.76915565 -115.5174426 79.16437323 -110.7109375 74.54101562 C-110.03804688 73.90228516 -109.36515625 73.26355469 -108.671875 72.60546875 C-107.7742041 71.74538208 -107.7742041 71.74538208 -106.85839844 70.86791992 C-105.0625 69.375 -105.0625 69.375 -102.89941406 68.3605957 C-100.70795013 67.45542385 -100.70795013 67.45542385 -100.0625 64.375 C-98.7421875 63.04296875 -98.7421875 63.04296875 -96.9375 61.5625 C-92.03246426 57.41004195 -87.36937272 53.02153241 -82.69482422 48.61401367 C-79.5423131 45.65234964 -76.36023174 42.74209206 -73.09375 39.90625 C-68.98244636 36.33328389 -65.01644005 32.62043149 -61.0625 28.875 C-56.41957811 24.4769197 -51.72071431 20.17655076 -46.88867188 15.98681641 C-44.45500592 13.83881338 -42.14569788 11.56865832 -39.8125 9.3125 C-28.65654976 -0.69729097 -14.69204144 -5.99882661 0 0 Z " fill="#111B47" transform="translate(325.0625,168.625)"/>
<path d="M0 0 C7.14917633 5.05673448 13.43004111 11.19648198 19.79223633 17.18774414 C24.2387109 21.35765252 28.85141484 25.203692 33.609375 29.015625 C36.36591717 31.30373516 38.85085901 33.76066876 41.33984375 36.33203125 C43.70223393 38.70553856 46.23070352 40.8646571 48.765625 43.05078125 C51.37851376 45.33020694 53.93930021 47.66212353 56.5 50 C59.64083556 52.86471815 62.79100756 55.71185902 66 58.5 C70.17868079 62.13065708 74.25816304 65.86718576 78.34765625 69.59765625 C80.52460996 71.56941844 82.71838674 73.51365337 84.9375 75.4375 C88.83402275 78.82404841 92.63352828 82.31337995 96.43286133 85.80786133 C102.04169474 90.96481075 107.71002734 96.05463986 113.38671875 101.13671875 C117.07343545 104.44348397 120.74885661 107.75996724 124.37890625 111.12890625 C125.24841919 111.93557739 125.24841919 111.93557739 126.13549805 112.75854492 C127.27013034 113.81291691 128.40318335 114.8689917 129.53442383 115.92700195 C131.7481255 117.9849967 133.93317362 119.95157827 136.3828125 121.7265625 C136.91648437 122.14679688 137.45015625 122.56703125 138 123 C138 123.66 138 124.32 138 125 C138.54011719 125.21398437 139.08023438 125.42796875 139.63671875 125.6484375 C142.85082019 127.48658477 145.24742445 129.99799759 147.8125 132.625 C148.5559668 133.36943359 148.5559668 133.36943359 149.31445312 134.12890625 C153.39696027 138.25870112 157.21657207 142.59660521 161 147 C161.55196045 147.6398584 162.1039209 148.2797168 162.67260742 148.93896484 C178.12368578 166.97778478 192.72950236 186.7331535 199 210 C199.33644531 211.19302734 199.33644531 211.19302734 199.6796875 212.41015625 C204.21847479 232.02642186 201.10307786 253.84022551 193 272 C192.51917969 273.09570312 192.03835938 274.19140625 191.54296875 275.3203125 C182.73687038 294.13236693 168.69175094 312.03879103 153.69921875 326.33984375 C151.97506979 328.0243571 150.43091822 329.78479055 148.875 331.625 C141.55543835 340.12242214 133.41271914 348.11972388 124.85546875 355.36328125 C122.63836416 357.31900088 120.57624088 359.3955589 118.5 361.5 C115.21484357 364.82426543 111.84219312 367.9463983 108.296875 370.98828125 C105.31175484 373.60279976 102.40804272 376.30035527 99.5 379 C95.41452129 382.78905962 91.29605757 386.52172703 87.08203125 390.16796875 C84.39483502 392.53249977 81.75948451 394.95216715 79.125 397.375 C71.84765414 404.06695685 64.51794218 410.69405036 57.0625 417.1875 C54.69035571 419.27211164 52.34443935 421.38428644 50 423.5 C44.63983189 428.33227276 39.22990426 433.09818856 33.7421875 437.78515625 C33.15373047 438.28797119 32.56527344 438.79078613 31.95898438 439.30883789 C30.73450034 440.35450683 29.50923693 441.39926381 28.28320312 442.44311523 C24.69385054 445.5097419 21.20127236 448.65236083 17.75 451.875 C8.08117813 460.65033338 -0.09626298 463.60260152 -12.94140625 463.34375 C-18.44172753 463.03824731 -22.51173598 461.12263267 -27 458 C-27.64324219 457.58878906 -28.28648437 457.17757813 -28.94921875 456.75390625 C-35.34431907 452.07896306 -39.56358617 443.72471437 -41 436 C-42.09446268 425.18165739 -38.49851707 416.47232435 -32 408 C-29.34632992 405.13199248 -26.51996125 402.49694889 -23.625 399.875 C-22.54992187 398.87919922 -22.54992187 398.87919922 -21.453125 397.86328125 C-17.3252042 394.05575864 -13.11980439 390.34365975 -8.88427734 386.65673828 C-6.04071706 384.15655688 -3.26956899 381.58151183 -0.5 379 C2.96201735 375.7875331 6.42652808 372.58893335 10 369.5 C15.22886774 364.9741733 20.26517709 360.23701508 25.33740234 355.53759766 C27.90513176 353.16291926 30.4831282 350.79951855 33.0625 348.4375 C33.55331055 347.98793945 34.04412109 347.53837891 34.54980469 347.07519531 C35.53851282 346.16969207 36.52728217 345.26425566 37.51611328 344.35888672 C40.01164405 342.07357506 42.50576208 339.78672251 45 337.5 C47.9875941 334.76096752 50.97545297 332.02222787 53.96484375 329.28515625 C56.45800288 327.00225367 58.9491328 324.71715102 61.43945312 322.43115234 C62.5077012 321.45147928 63.576751 320.47267991 64.64648438 319.49462891 C70.80247881 313.86593365 76.90259458 308.22639199 82.70703125 302.23046875 C84.61922815 300.37039306 86.56463216 298.63578109 88.5859375 296.8984375 C93.87688323 292.29945546 98.85402763 287.38974472 103.8125 282.4375 C104.2976709 281.95300385 104.7828418 281.46850769 105.28271484 280.96932983 C119.13913977 267.08231235 133.59789418 252.30508879 134.375 231.6875 C134.06471885 215.88141337 124.40729579 204.96517301 114 194 C113.25105469 193.28585937 112.50210938 192.57171875 111.73046875 191.8359375 C110 190 110 190 110 188 C109.43249023 187.75918701 108.86498047 187.51837402 108.28027344 187.27026367 C105.53999364 185.74374592 103.70960709 183.91799033 101.515625 181.67578125 C100.23558594 180.37930664 100.23558594 180.37930664 98.9296875 179.05664062 C98.04539062 178.15107422 97.16109375 177.24550781 96.25 176.3125 C90.94785482 170.90415458 85.66335102 165.57779084 79.90722656 160.65112305 C75.91795167 157.19753036 72.12521474 153.52415526 68.29296875 149.8984375 C65.7746466 147.53007704 63.33875544 145.24813296 60.546875 143.203125 C60.03640625 142.80609375 59.5259375 142.4090625 59 142 C59 141.34 59 140.68 59 140 C58.11054687 139.60361328 58.11054687 139.60361328 57.203125 139.19921875 C54.91970946 137.95629575 53.52573277 136.69598354 51.75 134.8125 C48.68488955 131.65628223 45.48927991 128.74869441 42.16015625 125.875 C37.17922244 121.55158548 32.31677619 117.0921191 27.421875 112.671875 C23.70044745 109.31574095 19.97607909 105.96775821 16.1875 102.6875 C12.02119645 99.05987004 7.97727903 95.30428752 3.92529297 91.55029297 C-1.00609844 86.98429554 -5.99365203 82.48366237 -11 78 C-12.667057 76.50043381 -14.33371995 75.00042947 -16 73.5 C-16.825 72.7575 -17.65 72.015 -18.5 71.25 C-26 64.5 -26 64.5 -28.48828125 62.25390625 C-30.18527708 60.73109662 -31.8912895 59.21828432 -33.60546875 57.71484375 C-50.07665229 43.1873097 -50.07665229 43.1873097 -51.3125 30.890625 C-51.66969791 21.38023052 -49.79863877 14.10642536 -43.75 6.6875 C-32.68904775 -5.01158411 -14.10795105 -8.53902301 0 0 Z " fill="#111B46" transform="translate(702,438)"/>
<path d="M0 0 C7.98224158 4.51865211 13.76546536 10.81568817 16.625 19.5625 C19.76301353 33.50402278 15.50134507 46.09931079 11.8125 59.5 C11.17905709 61.84361068 10.54676594 64.18753292 9.91552734 66.53173828 C8.0183414 73.55564684 6.09481424 80.57218056 4.16709137 87.58774567 C3.27031557 90.85456007 2.37723231 94.12238297 1.48388672 97.39013672 C-2.77855229 112.97543099 -7.07315702 128.5517404 -11.38192749 144.12428284 C-14.69229683 156.08882705 -17.99436073 168.05564563 -21.29296875 180.0234375 C-25.86629602 196.61524652 -30.4428672 213.20615633 -35.02285767 229.79612732 C-35.51507703 231.57909102 -36.00729506 233.36205509 -36.49951172 235.14501953 C-36.74043108 236.01769628 -36.98135044 236.89037302 -37.22957039 237.78949451 C-38.85336715 243.67174156 -40.47606064 249.55429212 -42.09814453 255.43701172 C-43.9848722 262.27946271 -45.87312754 269.12148968 -47.76345921 275.96294594 C-48.71116648 279.39300649 -49.65821673 282.8232443 -50.603302 286.25402832 C-53.89147722 298.1883588 -57.18944677 310.12011029 -60.68359375 321.99609375 C-61.03074936 323.19718025 -61.03074936 323.19718025 -61.38491821 324.42253113 C-64.2165452 333.90450109 -69.33591416 341.71888782 -78.19921875 346.55859375 C-85.85181147 350.02799045 -93.46642427 350.86525231 -101.375 347.9375 C-111.91799867 343.28046991 -117.41124348 336.83717509 -121.75 326.1875 C-123.28239469 317.29961079 -122.33588538 309.57550283 -120.19921875 300.89453125 C-119.97622101 299.97467941 -119.75322327 299.05482758 -119.52346802 298.10710144 C-117.37396076 289.35193158 -114.97008901 280.67450299 -112.49899292 272.0055542 C-108.09226021 256.52857315 -103.85951209 241.01223229 -99.8125 225.4375 C-98.89721471 221.91794813 -97.98188098 218.39840886 -97.06640625 214.87890625 C-96.84139435 214.01359283 -96.61638245 213.14827942 -96.384552 212.25674438 C-92.42400305 197.04705816 -88.31294158 181.87715334 -84.22131348 166.70233154 C-83.3054549 163.30448697 -82.39044716 159.90641402 -81.47558594 156.50830078 C-73.18768099 125.72587156 -64.86813342 94.95247477 -56.45996094 64.20263672 C-56.03130737 62.63346497 -56.03130737 62.63346497 -55.59399414 61.03259277 C-55.0315302 58.97594798 -54.46759419 56.91970515 -53.90209961 54.8638916 C-52.41182701 49.43137616 -50.96425305 43.99102859 -49.56738281 38.53369141 C-49.26462433 37.36663162 -48.96186584 36.19957184 -48.64993286 34.99714661 C-48.07410209 32.77264494 -47.50785791 30.54562927 -46.95333862 28.3157196 C-44.07125083 17.25438508 -39.21808043 7.40840327 -29.1875 1.2109375 C-19.83892387 -3.56645986 -9.72043102 -4.48254271 0 0 Z " fill="#111B47" transform="translate(514.375,514.4375)"/>
<path d="M0 0 C8.23249356 5.90958237 12.82141023 12.46423069 16 22 C16.95636351 33.03737556 15.48447898 42.19991165 8.3125 50.875 C1.24708393 58.24416293 -6.07713364 61.1067818 -16.125 61.375 C-24.85271059 61.45658719 -31.36774503 58.58426885 -38 53 C-38 52.34 -38 51.68 -38 51 C-38.66 51 -39.32 51 -40 51 C-46.64139025 42.03051371 -49.15829763 33.08858101 -48 22 C-45.39546476 12.42766171 -40.55120683 5.10776784 -32 0 C-21.30483314 -5.25035464 -10.50921087 -6.130373 0 0 Z " fill="#101A44" transform="translate(536,406)"/>
<path d="M0 0 C6.02134738 11.23984845 4.10986447 29.07567306 1 41 C0.12262625 43.74472537 -0.8954516 46.3306747 -2 49 C-2.350625 50.051875 -2.70125 51.10375 -3.0625 52.1875 C-4.23879058 55.71637174 -5.63834143 59.12776464 -7.0625 62.5625 C-8.04810775 64.92021153 -8.04810775 64.92021153 -8.4375 67.1875 C-9 69 -9 69 -12 71 C-13.16038417 72.84259659 -13.16038417 72.84259659 -14.1875 75 C-17.16008452 80.55474003 -20.98232804 85.17306434 -25 90 C-25.79535156 90.99257813 -26.59070313 91.98515625 -27.41015625 93.0078125 C-28.20292969 93.99523437 -28.99570312 94.98265625 -29.8125 96 C-30.90498047 97.36125 -30.90498047 97.36125 -32.01953125 98.75 C-34 101 -34 101 -37 103 C-35.27374265 98.84876209 -32.34489989 95.66467863 -29.5 92.25 C-10.60007093 69.0493175 0.52028783 44.0047224 0.125 13.75 C0.11493575 12.40755887 0.10581607 11.06511031 0.09765625 9.72265625 C0.07433912 6.48157511 0.04161552 3.24088898 0 0 Z " fill="#2C3254" transform="translate(902,652)"/>
<path d="M0 0 C0.99 0.495 0.99 0.495 2 1 C-12.89996362 16.08912332 -12.89996362 16.08912332 -19.11328125 21.33203125 C-21.51501098 23.45529956 -23.74704563 25.7197784 -26 28 C-28.81456574 30.84863007 -31.62735252 33.60529312 -34.6875 36.1875 C-51.02201931 49.63870118 -51.02201931 49.63870118 -62 67 C-63.33333333 68.33333333 -64.66666667 69.66666667 -66 71 C-67.36821051 72.97630407 -68.70951192 74.97209016 -70 77 C-71 74 -71 74 -70.05859375 71.828125 C-64.4241995 62.86740161 -57.39507211 55.52190052 -50 48 C-49.15373047 47.13858398 -48.30746094 46.27716797 -47.43554688 45.38964844 C-44.67240454 42.58601688 -41.90115088 39.79074939 -39.125 37 C-38.24569824 36.11586426 -37.36639648 35.23172852 -36.46044922 34.32080078 C-32.00401524 29.87618534 -27.48096693 25.58921971 -22.70654297 21.48828125 C-20.53112812 19.59109542 -18.50934262 17.57116854 -16.5 15.5 C-13.04213086 11.99435374 -9.46575866 8.71374995 -5.73046875 5.5078125 C-3.72531622 3.76065928 -1.84156687 1.91829882 0 0 Z " fill="#2C335B" transform="translate(237,312)"/>
<path d="M0 0 C0.99 0.495 0.99 0.495 2 1 C-11.32708236 14.50992343 -11.32708236 14.50992343 -17.21875 19.4375 C-18.66225687 20.7037341 -20.03502489 22.05029575 -21.3828125 23.41796875 C-23.92793064 25.92889873 -26.56287096 28.10872553 -29.375 30.3125 C-33.49706824 33.63550421 -36.89598933 37.04195381 -40.265625 41.1015625 C-42.77950097 43.85323755 -45.66874844 45.97122302 -48.64453125 48.19921875 C-51.19955363 50.1525609 -53.6377166 52.19985512 -56.0625 54.3125 C-56.81660156 54.96863281 -57.57070313 55.62476563 -58.34765625 56.30078125 C-60.232383 57.84395137 -60.232383 57.84395137 -60 60 C-61.485 60.495 -61.485 60.495 -63 61 C-63 58 -63 58 -61.3125 55.984375 C-60.549375 55.24703125 -59.78625 54.5096875 -59 53.75 C-58.16855469 52.945625 -57.33710938 52.14125 -56.48046875 51.3125 C-53.8249991 48.83684955 -51.11859187 46.44139743 -48.36328125 44.078125 C-45.18296638 41.2815506 -42.09507431 38.39025621 -39 35.5 C-34.73819752 31.52380815 -30.45033758 27.59965332 -26.0390625 23.7890625 C-21.83125321 20.0971532 -17.73518389 16.27926912 -13.6171875 12.48779297 C-10.83184189 9.92530864 -8.04058087 7.36927996 -5.25 4.8125 C-4.23434915 3.88153862 -3.21872169 2.95055172 -2.203125 2.01953125 C-1.47609375 1.35308594 -0.7490625 0.68664062 0 0 Z " fill="#2C335B" transform="translate(314,242)"/>
<path d="M0 0 C0.99 0.495 0.99 0.495 2 1 C1.05125 1.9075 0.1025 2.815 -0.875 3.75 C-2.70769295 5.56560491 -3.92949725 6.85484728 -5.0625 9.1875 C-6 11 -6 11 -8.109375 12.19921875 C-11.92243459 14.57465182 -14.95175444 17.52727787 -18.1875 20.625 C-19.53061337 21.89520476 -20.87436357 23.16473648 -22.21875 24.43359375 C-22.8684375 25.04831543 -23.518125 25.66303711 -24.1875 26.29638672 C-27.25530875 29.17989553 -30.39583183 31.98013593 -33.53515625 34.78515625 C-36.41895294 37.37646009 -39.27240896 39.99946099 -42.125 42.625 C-46.13603041 46.31619079 -50.19392016 49.94264138 -54.32421875 53.5 C-55.86986354 54.88351422 -57.31612873 56.37595277 -58.75 57.875 C-61.05098798 60.04815531 -62.01804051 60.41112565 -65 61 C-61.40031771 56.5903892 -57.73374098 52.76496594 -53.40234375 49.08203125 C-50.37113039 46.45497967 -47.43800086 43.73036532 -44.5 41 C-40.36498426 37.16530582 -36.19954659 33.38127371 -31.9375 29.6875 C-20.99458674 20.15657555 -10.14555478 10.38149791 0 0 Z " fill="#2B3157" transform="translate(831,788)"/>
<path d="M0 0 C2.45722606 2.35182226 3.53720996 3.57535373 4 7 C4.2475 8.670625 4.2475 8.670625 4.5 10.375 C4.38053082 19.48879191 -2.44173721 29.17671277 -8.51953125 35.44921875 C-10.21673801 37.13733926 -10.21673801 37.13733926 -12 40 C-12.66 40 -13.32 40 -14 40 C-16.10113908 41.79266159 -18.11932553 43.60601042 -20.125 45.5 C-20.68832031 46.02464844 -21.25164062 46.54929688 -21.83203125 47.08984375 C-23.22547796 48.38881949 -24.61327583 49.69385002 -26 51 C-26.66 50.67 -27.32 50.34 -28 50 C-24.12392027 46.03114176 -20.23905742 42.14551282 -16 38.5625 C-8.37407928 31.92734851 -0.66443816 24.63138808 0.15429688 13.99560547 C0.32544866 9.32128333 0.20863943 4.67120492 0 0 Z " fill="#2B3259" transform="translate(345,190)"/>
<path d="M0 0 C0.66 0.33 1.32 0.66 2 1 C1.43152344 1.556875 0.86304688 2.11375 0.27734375 2.6875 C-5.39975027 8.29825068 -10.7256766 14.08881032 -15.84765625 20.20703125 C-16.45480469 20.92246094 -17.06195312 21.63789062 -17.6875 22.375 C-18.22761719 23.02210938 -18.76773438 23.66921875 -19.32421875 24.3359375 C-21.1176819 26.11685895 -22.71214123 26.96211535 -25 28 C-25.99 28.66 -26.98 29.32 -28 30 C-30.31856917 31.54571278 -32.50638429 32.79618552 -35 34 C-30.85931652 29.00831715 -26.52768775 24.50459838 -21.75 20.125 C-21.09539795 19.51930176 -20.4407959 18.91360352 -19.76635742 18.28955078 C-15.23386385 14.10476906 -10.66417241 9.96266774 -6.05078125 5.8671875 C-3.96820583 3.97105216 -1.97561943 2.0068369 0 0 Z " fill="#0B112B" transform="translate(768,756)"/>
<path d="M0 0 C0.93779297 0.00322266 1.87558594 0.00644531 2.84179688 0.00976562 C4.30649414 0.02233398 4.30649414 0.02233398 5.80078125 0.03515625 C6.78884766 0.03966797 7.77691406 0.04417969 8.79492188 0.04882812 C11.23443599 0.06061322 13.67382814 0.07706614 16.11328125 0.09765625 C15.78328125 1.08765625 15.45328125 2.07765625 15.11328125 3.09765625 C14.5399707 3.06623535 13.96666016 3.03481445 13.37597656 3.00244141 C-1.82459711 2.27991113 -11.63970161 3.28448868 -23.23632812 13.81152344 C-24.94297087 15.40833274 -26.60718773 17.04091681 -28.26953125 18.68359375 C-30.88671875 21.09765625 -30.88671875 21.09765625 -32.88671875 21.09765625 C-32.88671875 19.09765625 -32.88671875 19.09765625 -30.57421875 16.66015625 C-29.68734375 15.81453125 -28.80046875 14.96890625 -27.88671875 14.09765625 C-27.39171875 13.56140625 -26.89671875 13.02515625 -26.38671875 12.47265625 C-23.556616 9.8783954 -20.50806486 8.30477162 -16.88671875 7.09765625 C-16.88671875 6.43765625 -16.88671875 5.77765625 -16.88671875 5.09765625 C-15.45000307 4.45008 -14.01231459 3.80466172 -12.57421875 3.16015625 C-11.77371094 2.80050781 -10.97320312 2.44085938 -10.1484375 2.0703125 C-6.57508224 0.53358459 -3.85903945 -0.02338812 0 0 Z " fill="#2C3256" transform="translate(308.88671875,164.90234375)"/>
<path d="M0 0 C1.18115509 3.46392651 0.80383016 5.69346106 -0.13989258 9.19580078 C-0.41380325 10.23012238 -0.68771393 11.26444397 -0.96992493 12.33010864 C-1.27504501 13.44062592 -1.5801651 14.55114319 -1.89453125 15.6953125 C-2.20194748 16.8391037 -2.50936371 17.9828949 -2.82609558 19.16134644 C-3.47812114 21.57838913 -4.1349291 23.99414602 -4.79614258 26.40869141 C-5.80955926 30.11424719 -6.80529458 33.82422606 -7.79882812 37.53515625 C-8.4338485 39.88049216 -9.06988189 42.22555407 -9.70703125 44.5703125 C-10.00607864 45.68487823 -10.30512604 46.79944397 -10.61323547 47.94778442 C-10.89660263 48.9758017 -11.17996979 50.00381897 -11.47192383 51.06298828 C-11.71920731 51.97025665 -11.96649078 52.87752502 -12.2212677 53.81228638 C-13 56 -13 56 -15 58 C-15.33 56.02 -15.66 54.04 -16 52 C-15.34 52 -14.68 52 -14 52 C-13.896875 50.845 -13.79375 49.69 -13.6875 48.5 C-13.35769442 44.80617756 -12.14006626 41.66436226 -10.80444336 38.22119141 C-9.40896875 34.36807214 -8.44178545 30.4071204 -7.4375 26.4375 C-7.0202221 24.81102052 -6.60226427 23.18471531 -6.18359375 21.55859375 C-5.88654541 20.39759155 -5.88654541 20.39759155 -5.58349609 19.21313477 C-5.05070484 17.19231772 -4.46737674 15.18499808 -3.87890625 13.1796875 C-3.16745878 10.60582866 -2.71199743 8.33216794 -2.5 5.6875 C-2 2 -2 2 0 0 Z M-18 53 C-17.01 53.495 -17.01 53.495 -16 54 C-16.66 54.66 -17.32 55.32 -18 56 C-18 55.01 -18 54.02 -18 53 Z " fill="#2E3457" transform="translate(466,545)"/>
<path d="M0 0 C0.66 0.33 1.32 0.66 2 1 C1.03900391 1.94359375 1.03900391 1.94359375 0.05859375 2.90625 C-4.63487758 7.55075815 -9.16807494 12.2469487 -13.48046875 17.24609375 C-19.01934999 23.63930115 -19.01934999 23.63930115 -22.37890625 24.875 C-25.41036139 26.17613127 -27.04806929 27.74542875 -29.3125 30.125 C-30.00988281 30.84945312 -30.70726562 31.57390625 -31.42578125 32.3203125 C-32.20501953 33.15175781 -32.20501953 33.15175781 -33 34 C-33.66 33.67 -34.32 33.34 -35 33 C-29.90635667 27.81241653 -24.79908808 22.71959183 -19.27734375 17.98828125 C-16.21779619 15.31708107 -13.23387959 12.56768052 -10.25 9.8125 C-9.41698364 9.04510498 -9.41698364 9.04510498 -8.56713867 8.26220703 C-5.65053472 5.56486676 -2.78612105 2.83345806 0 0 Z " fill="#090E24" transform="translate(262,199)"/>
<path d="M0 0 C1.6114863 4.01755587 0.30448095 7.43772176 -0.87109375 11.390625 C-1.0722731 12.09523865 -1.27345245 12.79985229 -1.48072815 13.52581787 C-2.12377068 15.76998605 -2.78041584 18.0099076 -3.4375 20.25 C-3.87655443 21.77317739 -4.31471603 23.29661244 -4.75195312 24.8203125 C-5.82430813 28.54994108 -6.90887749 32.27582078 -8 36 C-8.66 36 -9.32 36 -10 36 C-10 32.37 -10 28.74 -10 25 C-8.68 24.67 -7.36 24.34 -6 24 C-6.33 21.69 -6.66 19.38 -7 17 C-6.01 16.67 -5.02 16.34 -4 16 C-3.87882812 15.09636719 -3.75765625 14.19273437 -3.6328125 13.26171875 C-3.46523438 12.08222656 -3.29765625 10.90273438 -3.125 9.6875 C-2.96257812 8.51574219 -2.80015625 7.34398437 -2.6328125 6.13671875 C-2 3 -2 3 0 0 Z " fill="#2B3159" transform="translate(426,693)"/>
<path d="M0 0 C2 2 2 2 2.01171875 5.66015625 C1.914548 7.12836638 1.80600369 8.59585757 1.6875 10.0625 C1.63916016 10.80822266 1.59082031 11.55394531 1.54101562 12.32226562 C1.14395028 17.85604972 1.14395028 17.85604972 0 19 C-0.35179197 21.3306218 -0.68330179 23.66435067 -1 26 C-1.30903983 27.33917261 -1.62942911 28.67653254 -2 30 C-2.66 30 -3.32 30 -4 30 C-3.97679687 30.59167969 -3.95359375 31.18335938 -3.9296875 31.79296875 C-3.82588536 36.33801959 -3.86291643 39.85940059 -6 44 C-6.66 44 -7.32 44 -8 44 C-7.37119768 37.35827545 -5.79365589 31.22664305 -4 24.8125 C-1.73511018 16.4802294 -0.0333057 8.6761346 0 0 Z " fill="#2C3357" transform="translate(532,538)"/>
<path d="M0 0 C0.66 0.33 1.32 0.66 2 1 C1.38511719 1.97839844 1.38511719 1.97839844 0.7578125 2.9765625 C-4.68864341 11.81076611 -7.0714228 18.50522003 -6 29 C-4.55033668 34.63440572 -2.67169803 39.45509012 1 44 C0.67 44.66 0.34 45.32 0 46 C-5.56572683 40.03672125 -8.622598 32.02704429 -9.1640625 23.91796875 C-8.94753375 20.06685032 -8.24647286 16.43976938 -7.375 12.6875 C-7.22289062 12.0054248 -7.07078125 11.32334961 -6.9140625 10.62060547 C-5.66697175 5.82237658 -3.73227044 3.20528874 0 0 Z " fill="#313658" transform="translate(495,411)"/>
<path d="M0 0 C0.93392578 -0.020625 1.86785156 -0.04125 2.83007812 -0.0625 C8.62761546 -0.0951392 12.66592462 0.54502262 17.8125 3.25 C17.8125 3.91 17.8125 4.57 17.8125 5.25 C19.1325 5.58 20.4525 5.91 21.8125 6.25 C21.8125 6.91 21.8125 7.57 21.8125 8.25 C21.1525 7.981875 20.4925 7.71375 19.8125 7.4375 C18.8225 7.045625 17.8325 6.65375 16.8125 6.25 C15.69875 5.71375 14.585 5.1775 13.4375 4.625 C5.20603435 1.52056153 -4.69692393 2.89500459 -13.1875 4.25 C-12.8575 3.26 -12.5275 2.27 -12.1875 1.25 C-8.48381753 -0.60184124 -4.07634388 0.02204919 0 0 Z " fill="#2D3257" transform="translate(683.1875,431.75)"/>
<path d="M0 0 C0.66 0 1.32 0 2 0 C3.72940654 3.2941077 5.33365538 6.62280592 6.75 10.0625 C7.01296875 10.69285156 7.2759375 11.32320313 7.546875 11.97265625 C8.12947458 14.57928712 7.59206102 16.40826269 7 19 C6.92842332 20.74965226 6.866237 22.499709 6.8125 24.25 C6.32901379 30.39360928 3.80722228 34.28463295 0 39 C0 35.72668088 0.72542309 34.10786402 2 31.125 C5.09907558 22.74642781 5.36277293 14.64737292 2 6.3125 C1.62875 5.52488281 1.2575 4.73726563 0.875 3.92578125 C0 2 0 2 0 0 Z " fill="#2D3458" transform="translate(547,416)"/>
<path d="M0 0 C0.66 0.33 1.32 0.66 2 1 C1.21753906 1.77085937 0.43507813 2.54171875 -0.37109375 3.3359375 C-1.39336057 4.34882573 -2.41548881 5.36185384 -3.4375 6.375 C-4.2119043 7.13683594 -4.2119043 7.13683594 -5.00195312 7.9140625 C-7.857133 10.68568936 -7.857133 10.68568936 -10 14 C-10.99 14.515625 -11.98 15.03125 -13 15.5625 C-19.07994691 18.8857008 -24.18159018 24.27238528 -28 30 C-28.99 29.34 -29.98 28.68 -31 28 C-18.05831054 15.98553524 -18.05831054 15.98553524 -11.98828125 10.734375 C-7.94603522 7.20832935 -3.97964245 3.59635722 0 0 Z " fill="#2C3257" transform="translate(763,850)"/>
<path d="M0 0 C0.66 0.66 1.32 1.32 2 2 C0.3970551 3.29318256 -1.20740142 4.58449156 -2.8125 5.875 C-3.70582031 6.59429688 -4.59914063 7.31359375 -5.51953125 8.0546875 C-13.00212367 13.92292534 -20.7925485 13.33111167 -30 13 C-33.75 12.5 -33.75 12.5 -36 12 C-36.33 11.01 -36.66 10.02 -37 9 C-36.1646875 9.2165625 -36.1646875 9.2165625 -35.3125 9.4375 C-26.24832767 11.64229867 -18.66354802 11.71490746 -10 8 C-6.30811848 5.69257405 -3.07487608 3.07487608 0 0 Z " fill="#2D3354" transform="translate(446,852)"/>
<path d="M0 0 C1.35199525 3.72470215 0.59825255 6.24367074 -0.4375 10 C-2.89402396 20.16727971 -2.94373205 28.14082453 1.22265625 37.8203125 C1.47917969 38.53960938 1.73570312 39.25890625 2 40 C1.67 40.66 1.34 41.32 1 42 C-2.75907683 35.73487194 -3.78405046 30.11813469 -4.60546875 22.87890625 C-4.68954853 20.10893384 -4.68954853 20.10893384 -6 19 C-6.04063832 17.33382885 -6.042721 15.66611905 -6 14 C-5.34 13.67 -4.68 13.34 -4 13 C-3.21376109 10.83927773 -2.51798774 8.64509125 -1.875 6.4375 C-1.34519531 4.64119141 -1.34519531 4.64119141 -0.8046875 2.80859375 C-0.40636719 1.41833984 -0.40636719 1.41833984 0 0 Z " fill="#2F3457" transform="translate(395,808)"/>
<path d="M0 0 C1.39277463 4.17832388 0.84888077 7.71836456 0 12 C-1 14 -2 16 -3 18 C-3.80521756 21.31218358 -4.50128089 24.63154167 -5.15625 27.9765625 C-5.99502466 30.9821717 -6.96089732 32.67768861 -9 35 C-8.2663392 28.04041211 -6.34410252 21.42328812 -4.5 14.6875 C-4.17902344 13.49576172 -3.85804688 12.30402344 -3.52734375 11.07617188 C-1.13943129 2.27886258 -1.13943129 2.27886258 0 0 Z " fill="#2C3256" transform="translate(505,649)"/>
<path d="M0 0 C1.41247023 4.23741068 0.97458311 8.42928061 0.78515625 12.84375 C0.6781887 18.01708974 1.72258588 21.35361743 4 26 C4.33 26.99 4.66 27.98 5 29 C5.66 29.66 6.32 30.32 7 31 C7.625 33.125 7.625 33.125 8 35 C2.13328996 30.11107497 -0.50550258 23.41444835 -2 16 C-2.40430229 10.30215845 -2.24745153 5.33769739 0 0 Z " fill="#2D3457" transform="translate(165,390)"/>
<path d="M0 0 C0.66 0.33 1.32 0.66 2 1 C1.25556641 1.72703125 1.25556641 1.72703125 0.49609375 2.46875 C-3.67336762 6.58282953 -7.6530127 10.78369421 -11.45703125 15.23828125 C-11.96621094 15.81964844 -12.47539063 16.40101563 -13 17 C-13.47824219 17.59167969 -13.95648437 18.18335938 -14.44921875 18.79296875 C-14.96097656 19.19128906 -15.47273437 19.58960938 -16 20 C-18.1875 19.6875 -18.1875 19.6875 -20 19 C-15.06991125 13.96720107 -10.09137284 9.07783613 -4.7265625 4.5078125 C-3.07703058 3.06727105 -1.52920426 1.56673075 0 0 Z " fill="#0B1029" transform="translate(698,820)"/>
<path d="M0 0 C0.33 0.66 0.66 1.32 1 2 C0.41012326 3.46135293 -0.24854767 4.89516037 -0.9375 6.3125 C-4.72242251 15.37535944 -3.51222568 24.73616782 -1 34 C-5.80113216 29.85784676 -6.69415391 23.49046103 -7.4375 17.4375 C-6.61958141 11.0109968 -3.48391871 5.400074 0 0 Z " fill="#303556" transform="translate(655,447)"/>
<path d="M0 0 C0.66 0.33 1.32 0.66 2 1 C1.28972656 1.67546875 0.57945312 2.3509375 -0.15234375 3.046875 C-1.07144531 3.93890625 -1.99054687 4.8309375 -2.9375 5.75 C-3.85402344 6.63171875 -4.77054688 7.5134375 -5.71484375 8.421875 C-7.82429343 10.80176695 -8.66067071 11.9099375 -9 15 C-10.0209375 15.12375 -10.0209375 15.12375 -11.0625 15.25 C-13.68945105 15.92071091 -15.22733583 16.62745008 -17.5 18 C-20.31253557 19.69859916 -22.6957923 20.59948998 -26 21 C-23.43007564 19.02533652 -20.81968192 17.26126276 -18.0625 15.5625 C-11.38448207 11.17376915 -5.75913612 5.50099865 0 0 Z M-11 12 C-10 14 -10 14 -10 14 Z " fill="#2C3255" transform="translate(729,880)"/>
<path d="M0 0 C1.125 1.6875 1.125 1.6875 2 4 C1.39351421 5.68949614 0.72159424 7.35636866 0 9 C0.020625 9.804375 0.04125 10.60875 0.0625 11.4375 C-0.02152378 14.88247484 -1.39261926 16.96383637 -3 20 C-4.06257541 22.64686578 -5.02875483 25.31751335 -6 28 C-7.18084557 24.54389113 -6.80189367 22.35044174 -5.8203125 18.8671875 C-5.55089844 17.89652344 -5.28148437 16.92585937 -5.00390625 15.92578125 C-4.71386719 14.91902344 -4.42382812 13.91226563 -4.125 12.875 C-3.84269531 11.86050781 -3.56039063 10.84601562 -3.26953125 9.80078125 C-1.17766907 2.35533815 -1.17766907 2.35533815 0 0 Z " fill="#2B3155" transform="translate(491,700)"/>
<path d="M0 0 C0.33 0 0.66 0 1 0 C0.36361844 7.91941498 -1.90389243 15.3897739 -4.0625 23 C-4.44388291 24.36053044 -4.82474673 25.72120649 -5.20507812 27.08203125 C-6.13073672 30.3897221 -7.06341626 33.69538376 -8 37 C-8.33 37 -8.66 37 -9 37 C-9.3639417 32.26875789 -8.36796413 28.87047575 -6.79296875 24.5078125 C-5.64944564 20.89135026 -5.09465041 17.22469274 -4.52734375 13.48046875 C-4.00177267 11.0083381 -3.17598463 9.2202953 -2 7 C-1.30269194 4.6756398 -0.63087848 2.34326294 0 0 Z " fill="#2F3458" transform="translate(436,655)"/>
<path d="M0 0 C2.7499231 2.37493359 4.04189302 4.48694108 5 8 C4.41535591 15.89269527 2.08329736 22.33061432 -2 29 C-2.33 28.34 -2.66 27.68 -3 27 C-2.41810349 25.2893997 -1.75894589 23.60474925 -1.0625 21.9375 C1.82201012 14.32836125 1.34188331 7.88356443 0 0 Z " fill="#2F355B" transform="translate(342,589)"/>
<path d="M0 0 C1.20955195 3.62865585 0.64105035 5.0474297 -0.375 8.6875 C-1.3557758 12.34876712 -2.19554791 15.85162474 -2.5625 19.625 C-3 23 -3 23 -5 25 C-5.71927295 27.31765729 -6.3909893 29.65095874 -7 32 C-8.34417567 28.28256653 -7.63987693 25.74397891 -6.6015625 21.9921875 C-6.12976563 20.26548828 -6.12976563 20.26548828 -5.6484375 18.50390625 C-5.14183594 16.70759766 -5.14183594 16.70759766 -4.625 14.875 C-4.295 13.66972656 -3.965 12.46445312 -3.625 11.22265625 C-1.17569314 2.35138628 -1.17569314 2.35138628 0 0 Z " fill="#2D3253" transform="translate(467,787)"/>
<path d="M0 0 C1.6427334 4.05905317 0.28347682 7.60209052 -0.87109375 11.609375 C-1.17286278 12.69958954 -1.17286278 12.69958954 -1.48072815 13.81182861 C-2.1238771 16.1272084 -2.7804757 18.43852366 -3.4375 20.75 C-3.87654371 22.32136544 -4.31470523 23.89297766 -4.75195312 25.46484375 C-5.82442859 29.31283171 -6.90897999 33.15723077 -8 37 C-10.53397322 28.41329686 -6.00125932 17.17265999 -3 9 C-2.43284056 7.3140603 -1.87028414 5.62656464 -1.3125 3.9375 C-0.875 2.625 -0.4375 1.3125 0 0 Z " fill="#2E3457" transform="translate(406,767)"/>
<path d="M0 0 C5.01526954 4.39734235 6.72116184 11.01340813 7.32421875 17.47265625 C7.46256521 26.91214175 7.46256521 26.91214175 5 31 C4.34 30.34 3.68 29.68 3 29 C3.66 29 4.32 29 5 29 C5.03013194 15.80863354 5.03013194 15.80863354 0.83984375 3.53125 C0 2 0 2 0 0 Z " fill="#2F3457" transform="translate(830,649)"/>
<path d="M0 0 C1.2684375 0.32484375 1.2684375 0.32484375 2.5625 0.65625 C12.92863832 3.20066577 20.59334708 3.38841215 31 1 C31.33 1.66 31.66 2.32 32 3 C26.9175504 5.0378512 22.51118201 5.33497989 17.125 5.3125 C15.97837891 5.33666992 15.97837891 5.33666992 14.80859375 5.36132812 C9.23820895 5.3660568 5.11290687 4.20705206 0 2 C0 1.34 0 0.68 0 0 Z " fill="#2D3356" transform="translate(294,629)"/>
<path d="M0 0 C1.32 0 2.64 0 4 0 C4 0.66 4 1.32 4 2 C4.66 2 5.32 2 6 2 C6 2.66 6 3.32 6 4 C6.99 4.33 7.98 4.66 9 5 C12.79393727 9.48288607 15.69310791 14.01560433 16 20 C14.18909525 17.75792745 12.90594538 15.78367438 11.75 13.125 C9.05450959 8.31162426 5.26786383 4.75595461 0 3 C0 2.01 0 1.02 0 0 Z " fill="#0D1129" transform="translate(326,572)"/>
<path d="M0 0 C0.66 0.99 1.32 1.98 2 3 C1.5390625 4.8671875 1.5390625 4.8671875 0.625 6.875 C-0.45105837 9.26104247 -1.01543503 10.69284287 -0.8828125 13.33203125 C-1.04887611 17.11274619 -2.64964716 19.54134052 -4.5 22.8125 C-5.00080078 23.7087207 -5.00080078 23.7087207 -5.51171875 24.62304688 C-6.33172633 26.08734612 -7.16459312 27.54443137 -8 29 C-9 27 -9 27 -8.3984375 24.9609375 C-8.06070312 24.10757813 -7.72296875 23.25421875 -7.375 22.375 C-5.4811674 17.40203398 -3.81966745 12.39442551 -2.25 7.3125 C-2.02747559 6.59304199 -1.80495117 5.87358398 -1.57568359 5.13232422 C-1.04837489 3.42218971 -0.52387714 1.71118885 0 0 Z " fill="#2D3253" transform="translate(458,820)"/>
<path d="M0 0 C1.3329765 3.69369719 0.64653003 6.14526516 -0.43359375 9.859375 C-0.75263672 10.97441406 -1.07167969 12.08945312 -1.40039062 13.23828125 C-1.74263672 14.39714844 -2.08488281 15.55601562 -2.4375 16.75 C-2.77587891 17.92433594 -3.11425781 19.09867188 -3.46289062 20.30859375 C-4.29982579 23.2083973 -5.14582331 26.10523732 -6 29 C-6.33 29 -6.66 29 -7 29 C-7.21290598 24.42595539 -6.53320332 20.94813502 -5.0625 16.625 C-3.82593186 12.82851887 -2.76039096 9.29002558 -2.375 5.3125 C-2 2 -2 2 0 0 Z " fill="#2F3459" transform="translate(450,604)"/>
<path d="M0 0 C0.33 0 0.66 0 1 0 C1.18334023 4.67517585 0.73272093 7.71916005 -1 12 C-1.15085919 13.49762028 -1.27339536 14.99823387 -1.375 16.5 C-1.74886098 20.7253345 -2.94499201 22.94499201 -6 26 C-5.39502042 19.93629658 -4.1366972 14.34485758 -2.4375 8.5 C-2.20353516 7.67757812 -1.96957031 6.85515625 -1.72851562 6.0078125 C-1.15757928 4.00370942 -0.57953295 2.00163409 0 0 Z " fill="#2C3256" transform="translate(514,615)"/>
<path d="M0 0 C2 3 2 3 1.75 4.75 C1.5025 5.4925 1.255 6.235 1 7 C0.5359375 8.7325 0.5359375 8.7325 0.0625 10.5 C-1.17450635 14.57484444 -2.64732754 17.47099132 -5 21 C-4.42351925 13.64987044 -2.28953836 6.98575424 0 0 Z " fill="#2B3156" transform="translate(473,765)"/>
<path d="M0 0 C2 3 2 3 1.75 4.8125 C1.5025 5.534375 1.255 6.25625 1 7 C0.3324776 8.99971455 -0.33405203 10.99976058 -1 13 C-2.33333333 17 -3.66666667 21 -5 25 C-6.16983989 21.57032105 -5.81325413 19.45660565 -4.78515625 16.015625 C-4.51123047 15.08105469 -4.23730469 14.14648438 -3.95507812 13.18359375 C-3.66052734 12.21550781 -3.36597656 11.24742187 -3.0625 10.25 C-2.77181641 9.26644531 -2.48113281 8.28289063 -2.18164062 7.26953125 C-1.46327231 4.84356612 -0.73579178 2.42072642 0 0 Z " fill="#2D3256" transform="translate(523,583)"/>
<path d="M0 0 C5.28 0 10.56 0 16 0 C16 0.66 16 1.32 16 2 C17.134375 2.28875 18.26875 2.5775 19.4375 2.875 C20.613125 3.24625 21.78875 3.6175 23 4 C23.33 4.66 23.66 5.32 24 6 C23.41734375 5.79503906 22.8346875 5.59007812 22.234375 5.37890625 C16.26160601 3.41615669 10.74879872 2.57565768 4.46875 2.30859375 C2 2 2 2 0 0 Z " fill="#2B325B" transform="translate(512,400)"/>
<path d="M0 0 C1.09582162 2.74600005 1.08328233 3.79273345 -0.0390625 6.5859375 C-3.00759379 11.80645804 -5.93059851 16.57153367 -10 21 C-10.33 20.34 -10.66 19.68 -11 19 C-9.8403424 16.00421787 -8.23715848 14.23715848 -6 12 C-5.67 11.01 -5.34 10.02 -5 9 C-4.34 9 -3.68 9 -3 9 C-2.67 6.69 -2.34 4.38 -2 2 C-1.34 2 -0.68 2 0 2 C0 1.34 0 0.68 0 0 Z " fill="#2E3359" transform="translate(834,680)"/>
<path d="M0 0 C0.66 0.33 1.32 0.66 2 1 C0.58833777 4.86275735 -1.22104454 8.16446954 -3.4375 11.625 C-4.03433594 12.56601562 -4.63117188 13.50703125 -5.24609375 14.4765625 C-6.70939499 16.58189124 -8.11413001 18.28137842 -10 20 C-7.94643799 12.71918922 -3.9266727 6.40667652 0 0 Z " fill="#2B3158" transform="translate(116,337)"/>
<path d="M0 0 C3.08654738 3.71361118 5.77284307 7.58783443 8.3125 11.6875 C8.68439453 12.26822266 9.05628906 12.84894531 9.43945312 13.44726562 C10.35778792 14.92652 11.18708458 16.46029198 12 18 C11.67 18.66 11.34 19.32 11 20 C9.68 19.67 8.36 19.34 7 19 C6.6596875 17.2675 6.6596875 17.2675 6.3125 15.5 C5.2980977 11.33132484 3.47293983 8.25190559 1.0234375 4.76171875 C0 3 0 3 0 0 Z " fill="#2E3458" transform="translate(105,439)"/>
<path d="M0 0 C3.21043882 1.38188453 5.04936365 2.92421903 7.25 5.625 C8.03117188 6.57246094 8.03117188 6.57246094 8.828125 7.5390625 C9.40820312 8.26222656 9.40820312 8.26222656 10 9 C8.68 8.67 7.36 8.34 6 8 C6 7.34 6 6.68 6 6 C5.01 6 4.02 6 3 6 C2.67 6.66 2.34 7.32 2 8 C-0.1519437 4.77208445 -0.20086443 3.71599191 0 0 Z " fill="#293059" transform="translate(208,552)"/>
<path d="M0 0 C0.66 0.66 1.32 1.32 2 2 C-2.29 6.29 -6.58 10.58 -11 15 C-11.66 14.67 -12.32 14.34 -13 14 C-11.625 12 -11.625 12 -10 10 C-9.34 10 -8.68 10 -8 10 C-8 9.34 -8 8.68 -8 8 C-6.3777546 6.29006566 -4.70586575 4.62652316 -3 3 C-2.401875 2.401875 -1.80375 1.80375 -1.1875 1.1875 C-0.795625 0.795625 -0.40375 0.40375 0 0 Z " fill="#2B325B" transform="translate(180,272)"/>
<path d="M0 0 C0.66 0 1.32 0 2 0 C2.33 1.32 2.66 2.64 3 4 C3.66 4 4.32 4 5 4 C5 4.99 5 5.98 5 7 C5.66 7 6.32 7 7 7 C7.33 7.99 7.66 8.98 8 10 C9.29355827 11.37195574 10.62298702 12.71182656 12 14 C11.01 15.485 11.01 15.485 10 17 C8.32771465 14.545324 6.6620314 12.08660326 5 9.625 C4.52304687 8.92632813 4.04609375 8.22765625 3.5546875 7.5078125 C2.87792969 6.50234375 2.87792969 6.50234375 2.1875 5.4765625 C1.76855469 4.85861816 1.34960938 4.24067383 0.91796875 3.60400391 C0 2 0 2 0 0 Z " fill="#2C3154" transform="translate(880,606)"/>
<path d="M0 0 C0.99 0.33 1.98 0.66 3 1 C-1.62 5.62 -6.24 10.24 -11 15 C-11.66 14.67 -12.32 14.34 -13 14 C-12.31292969 13.32453125 -11.62585938 12.6490625 -10.91796875 11.953125 C-10.01691406 11.06109375 -9.11585938 10.1690625 -8.1875 9.25 C-6.84751953 7.92742188 -6.84751953 7.92742188 -5.48046875 6.578125 C-3.44787848 4.46551149 -1.68226182 2.39205335 0 0 Z " fill="#2E355A" transform="translate(785,737)"/>
<path d="M0 0 C0 0.33 0 0.66 0 1 C-0.89460938 1.03738281 -1.78921875 1.07476563 -2.7109375 1.11328125 C-10.22582427 1.52187317 -16.92195595 2.4068917 -24 5 C-23.67 4.01 -23.34 3.02 -23 2 C-15.6136199 -0.80682444 -7.77829163 -0.18230371 0 0 Z " fill="#2D345F" transform="translate(508,511)"/>
<path d="M0 0 C3.89917968 1.61537444 6.71293772 4.27924873 9.75 7.125 C10.25660156 7.59292969 10.76320313 8.06085937 11.28515625 8.54296875 C12.52719141 9.69126541 13.76411494 10.84508672 15 12 C12 12 12 12 9 10 C9 9.34 9 8.68 9 8 C7.8553125 7.9071875 7.8553125 7.9071875 6.6875 7.8125 C4 7 4 7 2.25 4.5625 C1.8375 3.716875 1.425 2.87125 1 2 C0.67 1.34 0.34 0.68 0 0 Z " fill="#2D335A" transform="translate(712,536)"/>
<path d="M0 0 C0.66 0 1.32 0 2 0 C0 5 -2 10 -4 15 C-4.33 14.34 -4.66 13.68 -5 13 C-5.66 13 -6.32 13 -7 13 C-7 12.34 -7 11.68 -7 11 C-6.34 10.67 -5.68 10.34 -5 10 C-4.34786708 7.97536745 -4.34786708 7.97536745 -4 6 C-3.34 6 -2.68 6 -2 6 C-1.34 4.02 -0.68 2.04 0 0 Z " fill="#2D3256" transform="translate(666,848)"/>
<path d="M0 0 C5.58203011 2.68457804 9.19388335 6.14392014 13 11 C13.66 11.33 14.32 11.66 15 12 C14.67 12.66 14.34 13.32 14 14 C8.81580806 9.67106815 4.27293882 5.23435005 0 0 Z " fill="#2F3458" transform="translate(194,448)"/>
<path d="M0 0 C1 2 1 2 -0.21484375 5.6953125 C-0.78133585 7.17485658 -1.35591889 8.65132181 -1.9375 10.125 C-2.22818359 10.87910156 -2.51886719 11.63320313 -2.81835938 12.41015625 C-3.53874998 14.27608602 -4.26850404 16.1383958 -5 18 C-6.29202804 13.37411598 -5.30327754 10.59980309 -4 6 C-3.34 6 -2.68 6 -2 6 C-1.855625 5.195625 -1.71125 4.39125 -1.5625 3.5625 C-1 1 -1 1 0 0 Z " fill="#2E3459" transform="translate(104,359)"/>
<path d="M0 0 C0.33 0 0.66 0 1 0 C1.27429625 5.39449293 1.36055646 8.51925805 -2 13 C-3.18771723 9.57056481 -2.80226223 7.62215325 -1.5625 4.25 C-1.27503906 3.45078125 -0.98757813 2.6515625 -0.69140625 1.828125 C-0.46324219 1.22484375 -0.23507812 0.6215625 0 0 Z " fill="#2C3156" transform="translate(479,744)"/>
<path d="M0 0 C0.33 0 0.66 0 1 0 C1.63019694 8.03501094 1.63019694 8.03501094 -1 12.0625 C-1.66 12.701875 -2.32 13.34125 -3 14 C-2.48594831 9.03083364 -1.76615118 4.70973649 0 0 Z " fill="#2D3256" transform="translate(495,685)"/>
<path d="M0 0 C0 3.6952982 -0.72136847 5.11373339 -3 8 C-6.1875 8.8125 -6.1875 8.8125 -9 9 C-6 6 -3 3 0 0 Z " fill="#2C3359" transform="translate(545,455)"/>
<path d="M0 0 C3.77727089 1.81309003 7.37269822 3.9073259 11 6 C10.67 7.32 10.34 8.64 10 10 C8.33037631 8.52417192 6.6643694 7.04425109 5 5.5625 C4.071875 4.73878906 3.14375 3.91507813 2.1875 3.06640625 C1.465625 2.38449219 0.74375 1.70257812 0 1 C0 0.67 0 0.34 0 0 Z " fill="#2E3359" transform="translate(293,539)"/>
<path d="M0 0 C0.66 0.33 1.32 0.66 2 1 C0.71451591 2.33929505 -0.57858155 3.67128643 -1.875 5 C-2.59429688 5.7425 -3.31359375 6.485 -4.0546875 7.25 C-6 9 -6 9 -8 9 C-8 8.34 -8 7.68 -8 7 C-7.34 7 -6.68 7 -6 7 C-5.7525 6.401875 -5.505 5.80375 -5.25 5.1875 C-3.83629988 2.71352479 -2.34944617 1.56629745 0 0 Z " fill="#2D3258" transform="translate(686,829)"/>
<path d="M0 0 C0.556875 0.309375 1.11375 0.61875 1.6875 0.9375 C4.12540433 2.05761821 6.36224186 2.56037364 9 3 C9 4.65 9 6.3 9 8 C5.01824456 5.89851796 2.64960955 3.63094642 0 0 Z " fill="#2E3358" transform="translate(712,446)"/>
<path d="M0 0 C0.66 0.66 1.32 1.32 2 2 C0.88121617 3.17262904 -0.24523051 4.33795138 -1.375 5.5 C-2.00148438 6.1496875 -2.62796875 6.799375 -3.2734375 7.46875 C-5 9 -5 9 -7 9 C-5.76465298 5.29395893 -3.80264776 3.66251537 -1 1 C-0.67 0.67 -0.34 0.34 0 0 Z " fill="#2B3159" transform="translate(706,810)"/>
<path d="M0 0 C1.26014503 3.7804351 0.81641135 6.12204611 0 10 C-1.5625 12.4375 -1.5625 12.4375 -3 14 C-2.48594831 9.03083364 -1.76615118 4.70973649 0 0 Z " fill="#2D3358" transform="translate(483,729)"/>
<path d="M0 0 C4.29718241 1.90985885 7.6891507 4.6891507 11 8 C7 8 7 8 5.078125 6.50390625 C4.47484375 5.86324219 3.8715625 5.22257813 3.25 4.5625 C2.63640625 3.92441406 2.0228125 3.28632812 1.390625 2.62890625 C0 1 0 1 0 0 Z " fill="#2F355A" transform="translate(310,554)"/>
<path d="M0 0 C3.31038651 1.65519326 3.78867011 4.65442221 5 8 C4.67 8.99 4.34 9.98 4 11 C3.34 9.02 2.68 7.04 2 5 C1.01 5 0.02 5 -1 5 C-0.67 3.35 -0.34 1.7 0 0 Z " fill="#2C3257" transform="translate(100,428)"/>
<path d="M0 0 C0.66 0.33 1.32 0.66 2 1 C1.23997083 2.31878578 0.46656347 3.6298684 -0.3125 4.9375 C-0.74175781 5.66839844 -1.17101562 6.39929688 -1.61328125 7.15234375 C-3 9 -3 9 -6 10 C-5.58578031 5.16743695 -3.53586014 3.17320782 0 0 Z " fill="#2A3056" transform="translate(495,411)"/>
<path d="M0 0 C-1.125 1.5 -1.125 1.5 -3 3 C-6.1875 3.1875 -6.1875 3.1875 -9 3 C-9.33 2.34 -9.66 1.68 -10 1 C-6.59437148 0.22157062 -3.49234244 -0.09978121 0 0 Z " fill="#2A2F53" transform="translate(702,901)"/>
<path d="M0 0 C0.99 0.33 1.98 0.66 3 1 C3 1.66 3 2.32 3 3 C3.66 3.33 4.32 3.66 5 4 C5 5.98 5 7.96 5 10 C2.35534962 6.8745041 1.15585285 3.91211733 0 0 Z " fill="#2D3255" transform="translate(891,623)"/>
<path d="M0 0 C2.4375 0.625 2.4375 0.625 5 2 C5.8125 5.125 5.8125 5.125 6 8 C1.125 3.375 1.125 3.375 0 0 Z " fill="#2B3158" transform="translate(874,598)"/>
<path d="M0 0 C3 3 3 3 3.07421875 5.91796875 C2.94660156 6.99691406 2.81898438 8.07585937 2.6875 9.1875 C2.56761719 10.27417969 2.44773437 11.36085937 2.32421875 12.48046875 C2.21722656 13.31191406 2.11023438 14.14335937 2 15 C1.67 15 1.34 15 1 15 C0.67 10.05 0.34 5.1 0 0 Z " fill="#33395D" transform="translate(345,190)"/>
<path d="M0 0 C0.66 0.33 1.32 0.66 2 1 C-0.31 3.31 -2.62 5.62 -5 8 C-5.66 7.67 -6.32 7.34 -7 7 C-4.78071806 4.09197539 -3.07030857 2.04687238 0 0 Z " fill="#2E3559" transform="translate(741,779)"/>
<path d="M0 0 C3.36720387 1.39332574 4.9859524 2.9789286 7 6 C6.01 6 5.02 6 4 6 C4 5.34 4 4.68 4 4 C2.68 4 1.36 4 0 4 C0 2.68 0 1.36 0 0 Z " fill="#2B3259" transform="translate(752,572)"/>
<path d="M0 0 C3.7952131 1.49097658 5.61042731 3.75700849 8 7 C5.03 6.505 5.03 6.505 2 6 C1.34 4.02 0.68 2.04 0 0 Z " fill="#2D3459" transform="translate(670,498)"/>
<path d="M0 0 C2.93200474 2.85276137 5.64315404 5.65079784 8 9 C3.7257442 7.4169423 1.73468206 4.49431596 -1 1 C-0.67 0.67 -0.34 0.34 0 0 Z " fill="#2E3458" transform="translate(739,468)"/>
<path d="M0 0 C2.99324263 1.0975223 3.84610901 1.67682892 5.25 4.625 C5.4975 5.40875 5.745 6.1925 6 7 C3.5625 6.3125 3.5625 6.3125 1 5 C0.1875 2.375 0.1875 2.375 0 0 Z " fill="#0E142E" transform="translate(880,610)"/>
<path d="M0 0 C3.7952131 1.49097658 5.61042731 3.75700849 8 7 C5.0280615 5.87548273 2.66559313 4.77706209 0 3 C0 2.01 0 1.02 0 0 Z " fill="#2C3359" transform="translate(230,572)"/>
<path d="M0 0 C2.53910197 0.38520564 3.72751123 0.70097943 5.484375 2.62890625 C5.90203125 3.26699219 6.3196875 3.90507813 6.75 4.5625 C7.17796875 5.20316406 7.6059375 5.84382812 8.046875 6.50390625 C8.36140625 6.99761719 8.6759375 7.49132812 9 8 C4.7257442 6.4169423 2.73468206 3.49431596 0 0 Z " fill="#303459" transform="translate(321,564)"/>
<path d="M0 0 C4.87685861 1.35468295 6.48592381 3.71675909 9 8 C4.7257442 6.4169423 2.73468206 3.49431596 0 0 Z " fill="#2D3155" transform="translate(819,542)"/>
<path d="M0 0 C0.33 0.66 0.66 1.32 1 2 C2.98 1.67 4.96 1.34 7 1 C7.33 1.99 7.66 2.98 8 4 C3.82412255 5.39195915 1.86525224 3.82323219 -2 2 C-1.34 1.34 -0.68 0.68 0 0 Z " fill="#2D3255" transform="translate(510,511)"/>
<path d="M0 0 C0.598125 0.309375 1.19625 0.61875 1.8125 0.9375 C4.08956772 2.10209704 4.08956772 2.10209704 7 3 C7.6875 5.0625 7.6875 5.0625 8 7 C4.2047869 5.50902342 2.38957269 3.24299151 0 0 Z " fill="#2E335A" transform="translate(729,461)"/>
<path d="M0 0 C0.66 0.33 1.32 0.66 2 1 C-0.31 3.31 -2.62 5.62 -5 8 C-5.66 7.67 -6.32 7.34 -7 7 C-4.78071806 4.09197539 -3.07030857 2.04687238 0 0 Z " fill="#2F355C" transform="translate(207,248)"/>
<path d="M0 0 C0.66 0.33 1.32 0.66 2 1 C1.0479279 2.00596297 0.08812654 3.00461563 -0.875 4 C-1.40867188 4.556875 -1.94234375 5.11375 -2.4921875 5.6875 C-4 7 -4 7 -6 7 C-5.67 6.01 -5.34 5.02 -5 4 C-4.34 4 -3.68 4 -3 4 C-2.67 3.01 -2.34 2.02 -2 1 C-1.34 0.67 -0.68 0.34 0 0 Z " fill="#2C325A" transform="translate(234,223)"/>
<path d="M0 0 C0.66 0.33 1.32 0.66 2 1 C-0.31 3.31 -2.62 5.62 -5 8 C-5.66 7.67 -6.32 7.34 -7 7 C-2.25 1.125 -2.25 1.125 0 0 Z " fill="#2E335A" transform="translate(259,200)"/>
<path d="M0 0 C0.66 0.33 1.32 0.66 2 1 C2.28571429 8.42857143 2.28571429 8.42857143 0 12 C-0.92844389 7.66726186 -0.92844389 4.33273814 0 0 Z " fill="#282E51" transform="translate(902,681)"/>
<path d="M0 0 C3.7952131 1.49097658 5.61042731 3.75700849 8 7 C7.401875 6.690625 6.80375 6.38125 6.1875 6.0625 C3.91043228 4.89790296 3.91043228 4.89790296 1 4 C0.3125 1.9375 0.3125 1.9375 0 0 Z " fill="#2D3358" transform="translate(690,516)"/>
</svg>
