<?xml version="1.0" encoding="iso-8859-1"?>
<!-- Uploaded to: SVG Repo, www.svgrepo.com, Generator: SVG Repo Mixer Tools -->
<svg fill="#000000" version="1.1" id="Capa_1" xmlns="http://www.w3.org/2000/svg" xmlns:xlink="http://www.w3.org/1999/xlink" 
	 viewBox="0 0 490 490" xml:space="preserve">
<g>
	<rect x="153.047" y="317.42" width="183.75" height="30.625"/>
	<circle cx="324.287" cy="175.283" r="42.642"/>
	<polygon points="139.745,230.764 225.243,175.286 139.745,119.793 123.072,145.484 168.987,175.286 123.072,205.074 	"/>
	<path d="M69.089,490h351.821c38.087,0,69.086-30.999,69.086-69.086V69.086C489.996,30.999,458.997,0,420.911,0H69.089
		C30.995,0,0.004,30.999,0.004,69.086v351.829C0.004,459.001,30.995,490,69.089,490z M30.629,69.086
		c0-21.204,17.256-38.461,38.461-38.461h351.821c21.204,0,38.461,17.257,38.461,38.461v351.829
		c0,21.204-17.257,38.461-38.461,38.461H69.089c-21.204,0-38.461-17.257-38.461-38.461V69.086z"/>
</g>
</svg>